<?xml version="1.0" encoding="utf-8"?>
<svg version="1.1" xmlns:xlink="http://www.w3.org/1999/xlink" width="173px" height="25px" xmlns="http://www.w3.org/2000/svg">
  <defs>
    <mask fill="white" id="clip1">
      <path d="M 0 20  L 0 5  C 0 2.2  2.20000000000005 0  5 0  L 168 0  C 170.8 0  173 2.2  173 5  L 173 20  C 173 22.8  170.8 25  168 25  L 71.1948051948042 25  L 5 25  C 2.20000000000005 25  0 22.8  0 20  Z " fill-rule="evenodd" />
    </mask>
  </defs>
  <g transform="matrix(1 0 0 1 -874 -122 )">
    <path d="M 0 20  L 0 5  C 0 2.2  2.20000000000005 0  5 0  L 168 0  C 170.8 0  173 2.2  173 5  L 173 20  C 173 22.8  170.8 25  168 25  L 71.1948051948042 25  L 5 25  C 2.20000000000005 25  0 22.8  0 20  Z " fill-rule="nonzero" fill="#ffffff" stroke="none" transform="matrix(1 0 0 1 874 122 )" />
    <path d="M 0 20  L 0 5  C 0 2.2  2.20000000000005 0  5 0  L 168 0  C 170.8 0  173 2.2  173 5  L 173 20  C 173 22.8  170.8 25  168 25  L 71.1948051948042 25  L 5 25  C 2.20000000000005 25  0 22.8  0 20  Z " stroke-width="2" stroke="#797979" fill="none" transform="matrix(1 0 0 1 874 122 )" mask="url(#clip1)" />
  </g>
</svg>